<svg width="61" height="61" viewBox="0 0 61 61" fill="none" xmlns="http://www.w3.org/2000/svg">
<path d="M25.637 46.5548C26.5216 41.3039 30.5532 37.9732 36.6629 37.9732H52.5397C58.4653 37.9732 59.724 34.0913 59.724 34.0913C58.8393 39.3422 56.4287 42.6729 50.319 42.6729H34.0326C27.2935 42.6729 25.637 46.5548 25.637 46.5548Z" fill="#DF2325"/>
<path d="M52.2662 43.6745C50.9184 45.6954 49.3568 45.8732 46.394 45.8732C43.4312 45.8732 39.9519 45.9384 35.1366 45.8732C29.9532 45.8021 25.9513 48.1372 25.6248 53.2162C26.9726 51.1953 28.7241 50.8278 31.6869 50.8278C34.6497 50.8278 36.431 50.7626 41.2462 50.8278C46.4237 50.9049 50.4731 48.6231 52.2662 43.6745Z" fill="#EE4523"/>
<path d="M25.6365 57.43C25.6365 55.409 28.4093 54.3245 31.7224 54.3245C35.0355 54.3245 41.448 54.763 44.1733 52.8428C43.4311 55.0594 36.6624 60.1384 29.8996 60.1384C26.8358 60.1384 25.6365 58.6627 25.6365 57.43Z" fill="#FE5F3E"/>
<path d="M13.6086 25.7294C18.8692 26.6125 22.2061 30.6366 22.2061 36.735V52.5825C22.2061 58.4971 26.0951 59.7536 26.0951 59.7536C20.8345 58.8705 17.4977 56.4643 17.4977 50.366V34.1095C17.4977 27.377 13.6086 25.7294 13.6086 25.7294Z" fill="#172C4F"/>
<path d="M16.4927 52.3035C14.468 50.9582 14.2899 49.3995 14.2899 46.4422C14.2899 43.4849 14.2246 40.0119 14.2899 35.2055C14.3611 30.0317 12.0218 26.0372 6.93335 25.7112C8.95803 27.0566 9.32615 28.8049 9.32615 31.7622C9.32615 34.7196 9.39146 36.4975 9.32615 41.3039C9.2549 46.4778 11.5349 50.5137 16.4927 52.3035Z" fill="#264A74"/>
<path d="M2.71936 25.731C4.74404 25.731 5.8306 28.4986 5.8306 31.8056C5.8306 35.1067 5.39123 41.5133 7.31497 44.2335C5.08841 43.4927 0 36.7365 0 29.9803C0 26.9222 1.48437 25.731 2.71936 25.731Z" fill="#345A87"/>
<path d="M34.4802 13.722C33.5955 18.9729 29.564 22.3036 23.4543 22.3036H7.57155C1.64595 22.3036 0.387207 26.1854 0.387207 26.1854C1.27189 20.9346 3.68251 17.6039 9.79217 17.6039H26.0787C32.8236 17.6039 34.4802 13.722 34.4802 13.722Z" fill="#DF2325"/>
<path d="M7.85034 16.6022C9.19815 14.5813 10.7597 14.4035 13.7225 14.4035C16.6853 14.4035 20.1647 14.3383 24.98 14.4035C30.1634 14.4746 34.1652 12.1396 34.4918 7.06055C33.144 9.08149 31.3924 9.44893 28.4296 9.44893C25.4668 9.44893 23.6856 9.51412 18.8703 9.44893C13.6928 9.37189 9.64346 11.6536 7.85034 16.6022Z" fill="#EE4523"/>
<path d="M34.4811 2.84678C34.4811 4.86772 31.7083 5.95228 28.3952 5.95228C25.0821 5.95228 18.6696 5.51371 15.9443 7.43391C16.6865 5.21739 23.4552 0.138367 30.218 0.138367C33.2818 0.138367 34.4811 1.61406 34.4811 2.84678Z" fill="#FE5F3E"/>
<path d="M46.5082 34.5477C41.2476 33.6646 37.9108 29.6405 37.9108 23.5422V7.69465C37.9108 1.77999 34.0217 0.52356 34.0217 0.52356C39.2823 1.40661 42.6192 3.81277 42.6192 9.91116V26.1676C42.6192 32.9001 46.5082 34.5477 46.5082 34.5477Z" fill="#172C4F"/>
<path d="M43.6226 7.97333C45.6472 9.31865 45.8254 10.8773 45.8254 13.8347C45.8254 16.792 45.8907 20.2649 45.8254 25.0713C45.7541 30.2452 48.0935 34.2396 53.1819 34.5656C51.1572 33.2203 50.7891 31.472 50.7891 28.5146C50.7891 25.5573 50.7238 23.7793 50.7891 18.9729C50.8603 13.7991 48.5803 9.76314 43.6226 7.97333Z" fill="#264A74"/>
<path d="M57.3969 34.5477C55.3722 34.5477 54.2856 31.7801 54.2856 28.4731C54.2856 25.172 54.725 18.7654 52.8013 16.0452C55.0219 16.786 60.1103 23.5422 60.1103 30.2925C60.1162 33.3565 58.6319 34.5477 57.3969 34.5477Z" fill="#345A87"/>
</svg>
