<svg width="271" height="327" viewBox="0 0 271 327" fill="none" xmlns="http://www.w3.org/2000/svg">
<rect width="271" height="327" fill="#F5F5F5"/>
<g clip-path="url(#clip0_0_1)">
<rect width="1920" height="2086" transform="translate(-1649)" fill="white"/>
<g filter="url(#filter0_i_0_1)">
<path fill-rule="evenodd" clip-rule="evenodd" d="M692.596 68.3349C731.063 -32.9233 618.057 -10.1912 601.095 -68.0588C580.49 -138.353 729.002 -462.166 637.823 -501.457C473.409 -538.128 425.523 -317.399 350.068 -308.983C276.918 -300.824 156.67 -280.547 93.8751 -242.151C33.7688 -205.398 -49.0901 -92.6886 39.779 0.3896C108.113 68.3963 152.69 47.4384 173.389 101.341C195.307 158.416 198.952 225.298 245.285 265.188C295.498 308.417 365.735 336.769 430.477 322.676C493.491 308.959 522.898 239.593 569.18 194.684C612.493 152.657 679.791 127.312 692.596 68.3349Z" fill="#162C4E"/>
</g>
</g>
<rect x="-1848.5" y="-580.5" width="7622" height="3007" stroke="black" stroke-width="5"/>
<defs>
<filter id="filter0_i_0_1" x="0.838379" y="-505.564" width="699.692" height="835.887" filterUnits="userSpaceOnUse" color-interpolation-filters="sRGB">
<feFlood flood-opacity="0" result="BackgroundImageFix"/>
<feBlend mode="normal" in="SourceGraphic" in2="BackgroundImageFix" result="shape"/>
<feColorMatrix in="SourceAlpha" type="matrix" values="0 0 0 0 0 0 0 0 0 0 0 0 0 0 0 0 0 0 127 0" result="hardAlpha"/>
<feOffset dy="4"/>
<feGaussianBlur stdDeviation="15"/>
<feComposite in2="hardAlpha" operator="arithmetic" k2="-1" k3="1"/>
<feColorMatrix type="matrix" values="0 0 0 0 0 0 0 0 0 0 0 0 0 0 0 0 0 0 1 0"/>
<feBlend mode="normal" in2="shape" result="effect1_innerShadow_0_1"/>
</filter>
<clipPath id="clip0_0_1">
<rect width="1920" height="2086" fill="white" transform="translate(-1649)"/>
</clipPath>
</defs>
</svg>
